<svg width="43" height="42" viewBox="0 0 43 42" fill="none" xmlns="http://www.w3.org/2000/svg">
<path d="M21.5 3.5C18.0388 3.5 14.6554 4.52636 11.7775 6.44928C8.89967 8.37221 6.65665 11.1053 5.33212 14.303C4.00758 17.5007 3.66102 21.0194 4.33627 24.4141C5.01151 27.8087 6.67822 30.9269 9.12564 33.3744C11.5731 35.8218 14.6913 37.4885 18.0859 38.1637C21.4806 38.839 24.9993 38.4924 28.197 37.1679C31.3947 35.8433 34.1278 33.6003 36.0507 30.7225C37.9736 27.8446 39 24.4612 39 21C38.9949 16.3603 37.1495 11.912 33.8687 8.63126C30.588 5.35048 26.1397 3.5051 21.5 3.5ZM21.5 29.75C21.1539 29.75 20.8155 29.6474 20.5278 29.4551C20.24 29.2628 20.0157 28.9895 19.8832 28.6697C19.7508 28.3499 19.7161 27.9981 19.7836 27.6586C19.8512 27.3191 20.0178 27.0073 20.2626 26.7626C20.5073 26.5178 20.8191 26.3511 21.1586 26.2836C21.4981 26.2161 21.8499 26.2508 22.1697 26.3832C22.4895 26.5157 22.7628 26.74 22.9551 27.0277C23.1474 27.3155 23.25 27.6539 23.25 28C23.25 28.4641 23.0656 28.9092 22.7374 29.2374C22.4093 29.5656 21.9641 29.75 21.5 29.75ZM23.25 22.75C23.25 23.2141 23.0656 23.6592 22.7374 23.9874C22.4093 24.3156 21.9641 24.5 21.5 24.5C21.0359 24.5 20.5908 24.3156 20.2626 23.9874C19.9344 23.6592 19.75 23.2141 19.75 22.75V14C19.75 13.5359 19.9344 13.0907 20.2626 12.7626C20.5908 12.4344 21.0359 12.25 21.5 12.25C21.9641 12.25 22.4093 12.4344 22.7374 12.7626C23.0656 13.0907 23.25 13.5359 23.25 14V22.75Z" fill="#D6D6D6" style="fill:#D6D6D6;fill:color(display-p3 0.8411 0.8411 0.8411);fill-opacity:1;"/>
</svg>
