<svg width="10" height="10" viewBox="0 0 10 10" fill="none" xmlns="http://www.w3.org/2000/svg">
<path fill-rule="evenodd" clip-rule="evenodd" d="M5.77393 0.89243C5.54593 -0.0435703 4.21393 -0.0435703 3.98593 0.89243C3.95189 1.03308 3.88512 1.1637 3.79106 1.27368C3.697 1.38365 3.57831 1.46986 3.44463 1.52529C3.31096 1.58073 3.16609 1.60382 3.02181 1.59268C2.87753 1.58155 2.73791 1.53651 2.61433 1.46123C1.79113 0.95963 0.849128 1.90163 1.35073 2.72483C1.67473 3.25643 1.38733 3.95003 0.782528 4.09703C-0.154072 4.32443 -0.154072 5.65703 0.782528 5.88383C0.923215 5.91791 1.05386 5.98474 1.16383 6.07887C1.27381 6.173 1.35999 6.29178 1.41537 6.42552C1.47075 6.55927 1.49376 6.7042 1.48253 6.84852C1.4713 6.99284 1.42614 7.13247 1.35073 7.25603C0.849128 8.07923 1.79113 9.02123 2.61433 8.51963C2.73789 8.44422 2.87752 8.39906 3.02184 8.38783C3.16616 8.3766 3.31109 8.39961 3.44484 8.45499C3.57858 8.51037 3.69735 8.59655 3.79149 8.70652C3.88562 8.81649 3.95245 8.94714 3.98653 9.08783C4.21393 10.0244 5.54653 10.0244 5.77333 9.08783C5.80753 8.94722 5.87442 8.81666 5.96857 8.70676C6.06272 8.59687 6.18148 8.51074 6.31518 8.45537C6.44888 8.40001 6.59376 8.37697 6.73804 8.38814C6.88232 8.3993 7.02194 8.44436 7.14553 8.51963C7.96873 9.02123 8.91073 8.07923 8.40913 7.25603C8.33385 7.13244 8.2888 6.99283 8.27764 6.84855C8.26647 6.70426 8.28951 6.55939 8.34487 6.42568C8.40023 6.29198 8.48636 6.17323 8.59626 6.07907C8.70616 5.98492 8.83672 5.91803 8.97733 5.88383C9.91393 5.65643 9.91393 4.32383 8.97733 4.09703C8.83664 4.06295 8.70599 3.99612 8.59602 3.90199C8.48605 3.80786 8.39987 3.68908 8.34449 3.55534C8.2891 3.42159 8.26609 3.27666 8.27733 3.13234C8.28856 2.98802 8.33372 2.84839 8.40913 2.72483C8.91073 1.90163 7.96873 0.95963 7.14553 1.46123C7.02196 1.53664 6.88234 1.5818 6.73802 1.59303C6.5937 1.60426 6.44876 1.58125 6.31502 1.52587C6.18128 1.47049 6.0625 1.38431 5.96837 1.27434C5.87424 1.16436 5.80741 1.03372 5.77333 0.89303L5.77393 0.89243ZM4.87993 6.79043C5.35732 6.79043 5.81516 6.60079 6.15272 6.26322C6.49029 5.92566 6.67993 5.46782 6.67993 4.99043C6.67993 4.51304 6.49029 4.0552 6.15272 3.71764C5.81516 3.38007 5.35732 3.19043 4.87993 3.19043C4.40254 3.19043 3.9447 3.38007 3.60714 3.71764C3.26957 4.0552 3.07993 4.51304 3.07993 4.99043C3.07993 5.46782 3.26957 5.92566 3.60714 6.26322C3.9447 6.60079 4.40254 6.79043 4.87993 6.79043Z" fill="#62677B" style="fill:#62677B;fill:color(display-p3 0.3843 0.4039 0.4824);fill-opacity:1;"/>
</svg>
