<svg width="32" height="29" viewBox="0 0 32 29" fill="none" xmlns="http://www.w3.org/2000/svg">
<path d="M11.5 2.625H8.368C7.64642 2.62513 6.94389 2.85652 6.36347 3.28522C5.78305 3.71392 5.3553 4.31736 5.143 5.007L1.525 16.7655C1.42591 17.0867 1.37535 17.4209 1.375 17.757V24C1.375 24.8951 1.73058 25.7535 2.36351 26.3865C2.99645 27.0194 3.85489 27.375 4.75 27.375H27.25C28.1451 27.375 29.0035 27.0194 29.6365 26.3865C30.2694 25.7535 30.625 24.8951 30.625 24V17.757C30.625 17.421 30.574 17.0865 30.475 16.7655L26.86 5.007C26.6477 4.31736 26.22 3.71392 25.6395 3.28522C25.0591 2.85652 24.3566 2.62513 23.635 2.625H20.5M1.375 17.25H7.165C7.7917 17.2502 8.40597 17.4248 8.93901 17.7544C9.47205 18.084 9.9028 18.5554 10.183 19.116L10.567 19.884C10.8473 20.4448 11.2783 20.9164 11.8116 21.246C12.345 21.5756 12.9595 21.7501 13.5865 21.75H18.4135C19.0405 21.7501 19.655 21.5756 20.1884 21.246C20.7217 20.9164 21.1527 20.4448 21.433 19.884L21.817 19.116C22.0973 18.5552 22.5283 18.0836 23.0616 17.754C23.595 17.4244 24.2095 17.2499 24.8365 17.25H30.625M16 1.5V13.875M16 13.875L11.5 9.375M16 13.875L20.5 9.375" stroke="#5382E3" style="stroke:#5382E3;stroke:color(display-p3 0.3255 0.5098 0.8902);stroke-opacity:1;" stroke-width="2.25" stroke-linecap="round" stroke-linejoin="round"/>
</svg>
