<svg width="10" height="12" viewBox="0 0 10 12" fill="none" xmlns="http://www.w3.org/2000/svg">
<path fill-rule="evenodd" clip-rule="evenodd" d="M5.80009 0.618027C5.9219 0.656333 6.0283 0.732496 6.10384 0.835441C6.17937 0.938386 6.2201 1.06274 6.22009 1.19043V4.19043H8.62009C8.72984 4.19038 8.8375 4.22043 8.93136 4.27732C9.02522 4.33421 9.10167 4.41575 9.15241 4.51307C9.20314 4.61039 9.22621 4.71977 9.2191 4.82929C9.21199 4.93881 9.17498 5.04428 9.11209 5.13423L4.91209 11.1342C4.83899 11.239 4.73439 11.3176 4.6135 11.3588C4.4926 11.4 4.36173 11.4015 4.23991 11.3631C4.11809 11.3248 4.01169 11.2485 3.93619 11.1455C3.86068 11.0425 3.82001 10.9181 3.82009 10.7904V7.79043H1.42009C1.31034 7.79048 1.20268 7.76042 1.10882 7.70353C1.01497 7.64665 0.93851 7.5651 0.887777 7.46778C0.837044 7.37046 0.813976 7.26109 0.821084 7.15157C0.828192 7.04205 0.865204 6.93657 0.928091 6.84663L5.12809 0.846627C5.2013 0.742099 5.30592 0.663635 5.42677 0.622633C5.54762 0.581631 5.67839 0.580228 5.80009 0.618627V0.618027Z" fill="#A5A8B6" style="fill:#A5A8B6;fill:color(display-p3 0.6471 0.6588 0.7137);fill-opacity:1;"/>
</svg>
