<svg xmlns="http://www.w3.org/2000/svg" viewBox="0 0 32 32" fill="none">
  <circle cx="16" cy="16" r="16" fill="#FF0420"/>
  <path d="M10.7 19.7c-.9 0-1.6-.2-2.1-.7-.5-.5-.8-1.1-.8-2 0-1.2.3-2.2 1-3 .7-.8 1.6-1.2 2.7-1.2.9 0 1.6.2 2.1.7.5.5.7 1.1.7 2 0 1.2-.3 2.2-1 3-.7.8-1.6 1.2-2.6 1.2zm.1-1.5c.5 0 .9-.2 1.2-.7.3-.5.5-1.1.5-1.9 0-.5-.1-.9-.3-1.1-.2-.3-.5-.4-.9-.4-.5 0-.9.2-1.2.7-.3.5-.5 1.1-.5 1.9 0 .5.1.9.3 1.1.2.3.5.4.9.4zm6.3 1.4h-2l1.7-6.3h2.6c.8 0 1.4.2 1.8.5.4.3.6.8.6 1.4 0 .8-.3 1.5-.8 2-.5.5-1.2.8-2 .8h-1.1l-.8 1.6zm1.5-3h.6c.3 0 .6-.1.8-.3.2-.2.3-.5.3-.8 0-.2-.1-.4-.2-.5-.2-.1-.4-.2-.7-.2h-.5l-.3 1.8z" fill="#fff"/>
</svg>
